<?xml version="1.0" standalone="no"?>
<!DOCTYPE svg PUBLIC "-//W3C//DTD SVG 20010904//EN"
 "http://www.w3.org/TR/2001/REC-SVG-20010904/DTD/svg10.dtd">
<svg version="1.0" xmlns="http://www.w3.org/2000/svg"
 width="400.000000pt" height="400.000000pt" viewBox="0 0 400.000000 400.000000"
 preserveAspectRatio="xMidYMid meet">
<metadata>
Created by potrace 1.11, written by Peter Selinger 2001-2013
</metadata>
<g transform="translate(0.000000,400.000000) scale(0.100000,-0.100000)"
fill="#000000" stroke="none">
<path d="M0 2000 l0 -2000 1293 1 c710 1 1284 3 1274 6 -15 4 -17 11 -12 42 3
20 2 56 -3 79 -6 23 -6 42 -2 42 10 0 20 -37 20 -78 0 -18 4 -31 9 -28 4 3 7
45 6 93 -1 48 2 90 6 93 4 3 4 12 -2 20 -13 21 -28 -3 -21 -36 2 -13 0 -24 -5
-24 -5 0 -14 30 -20 67 -7 38 -15 82 -18 100 -3 18 -1 34 5 38 5 3 10 17 10
30 0 13 7 30 15 39 11 10 15 34 14 80 -2 65 -2 66 -28 66 -15 0 -35 6 -45 13
-16 12 -16 14 3 36 12 13 21 30 21 38 0 7 7 13 15 13 8 0 18 15 23 33 5 17 14
31 20 30 5 -1 13 4 16 13 6 17 -16 29 -39 21 -8 -4 -17 -2 -20 3 -4 6 -15 10
-26 10 -26 0 -24 5 16 44 46 45 49 86 6 86 -16 0 -31 5 -33 12 -3 7 -34 11
-94 10 -49 -1 -93 2 -99 6 -22 16 -14 32 14 32 17 0 33 5 36 10 4 6 15 8 26 5
11 -4 19 -2 19 4 0 6 7 11 15 11 8 0 15 -4 15 -10 0 -5 5 -10 10 -10 6 0 10 7
10 16 0 13 10 15 52 12 59 -4 77 15 31 33 -15 6 -36 15 -46 20 -10 6 -22 7
-27 4 -5 -3 -40 11 -77 31 -37 21 -78 42 -90 48 -13 6 -23 17 -23 24 0 6 -7
12 -15 12 -14 0 -17 6 -14 27 0 4 -8 10 -18 14 -17 7 -17 8 1 8 10 1 27 -8 36
-19 15 -18 21 -19 44 -9 14 7 26 16 26 21 0 12 40 9 85 -7 58 -21 76 -19 67 5
-8 21 -69 70 -88 70 -6 0 -14 13 -17 28 -3 16 -17 34 -31 42 -14 7 -26 17 -26
22 0 4 -9 8 -20 8 -12 0 -22 9 -26 23 -6 24 -86 90 -133 110 -17 7 -28 16 -24
20 3 4 -5 7 -19 7 -17 0 -27 7 -31 20 -4 15 0 20 14 20 16 0 18 3 9 19 -25 48
2 65 67 40 24 -9 30 -7 41 10 17 24 42 17 35 -10 -3 -10 -1 -19 4 -19 6 0 8
-11 6 -24 -3 -13 0 -27 6 -30 17 -11 51 13 51 34 0 11 5 20 10 20 6 0 10 -9
10 -20 0 -11 7 -23 15 -26 8 -4 15 -12 15 -20 0 -8 3 -14 8 -14 8 0 32 49 32
67 0 21 -16 15 -28 -9 -10 -21 -11 -20 -11 13 -1 30 -6 38 -33 50 -32 13 -33
16 -34 74 -1 53 -3 60 -22 63 -23 4 -26 18 -16 71 4 17 13 31 21 31 10 0 12 6
8 20 -4 12 -2 20 6 20 8 0 10 15 7 49 -4 44 -3 50 19 60 34 15 41 13 18 -5
-20 -16 -20 -16 3 -9 16 5 22 2 22 -9 0 -23 6 -20 45 19 19 19 35 28 35 21 0
-11 6 -11 37 -1 21 7 39 18 41 24 2 6 12 11 23 11 10 0 18 3 18 8 -6 35 3 64
21 69 11 3 20 14 20 24 0 12 7 19 20 19 11 0 20 5 20 10 0 6 -9 10 -19 10 -11
0 -21 5 -23 11 -2 5 -28 11 -58 11 -31 1 -61 7 -68 15 -19 18 -32 16 -32 -6 0
-14 -6 -17 -26 -13 -14 2 -29 0 -33 -5 -3 -5 -20 -13 -38 -16 -27 -5 -31 -4
-26 10 4 10 -1 21 -13 30 -10 8 -19 19 -19 26 -1 18 27 36 55 37 24 1 24 1 5
12 -30 17 -30 17 -7 38 17 16 22 17 22 6 0 -12 15 -15 80 -14 76 1 80 2 80 23
0 18 5 21 23 18 14 -3 29 3 41 16 12 13 31 21 52 21 55 0 106 31 72 43 -9 3
-5 11 11 26 13 11 22 23 20 25 -2 1 -13 8 -24 14 -17 10 -18 11 -2 12 30 0 18
30 -20 48 -21 9 -42 23 -47 30 -5 10 -19 12 -42 7 -27 -5 -34 -3 -34 10 0 9
-5 13 -11 9 -17 -10 -28 16 -22 48 3 17 1 28 -6 28 -6 0 -11 -7 -11 -15 0 -8
-4 -15 -9 -15 -5 0 -7 9 -4 20 3 11 1 20 -4 20 -5 0 -16 -9 -26 -20 -9 -11
-22 -20 -29 -20 -10 0 -10 2 0 8 16 10 5 42 -14 42 -17 0 -18 12 -2 28 17 17
26 15 24 -5 -1 -13 7 -18 32 -18 17 0 32 4 32 9 0 4 11 6 24 4 28 -6 66 36 66
73 l0 22 23 -20 c26 -25 105 -53 148 -53 17 0 39 -5 50 -10 13 -7 19 -7 19 0
0 5 11 10 25 10 14 0 25 -4 25 -10 0 -5 8 -10 18 -10 10 0 23 -5 30 -12 15
-15 26 -4 19 17 -4 8 -16 15 -27 15 -11 0 -20 6 -20 14 0 16 -27 29 -41 21 -5
-4 -6 1 -3 9 4 11 0 16 -15 16 -12 0 -21 5 -21 10 0 6 -5 10 -10 10 -6 0 -16
4 -23 10 -44 35 -67 59 -67 69 0 15 -68 81 -85 81 -15 0 -29 73 -14 78 6 3 6
9 -2 18 -8 10 -9 14 0 14 6 0 16 11 21 25 8 22 12 24 35 13 14 -6 25 -17 25
-23 0 -7 25 -17 55 -23 62 -13 125 -39 125 -53 0 -5 11 -9 24 -9 14 0 28 -4
31 -10 3 -5 15 -10 27 -10 11 0 22 -8 25 -19 3 -11 17 -21 34 -25 16 -3 28
-11 27 -18 -2 -7 2 -12 9 -11 6 2 25 -11 42 -27 19 -19 35 -28 46 -24 20 8 13
30 -9 26 -19 -3 -22 14 -3 22 8 3 5 11 -10 24 -13 11 -23 24 -23 29 0 5 -6 21
-12 36 -13 27 -28 36 -28 16 0 -5 -5 -7 -10 -4 -8 5 -7 11 1 21 8 10 7 17 -5
29 -8 9 -23 31 -32 50 -9 19 -20 35 -25 35 -5 0 -9 12 -9 28 0 30 -19 69 -21
42 0 -8 -7 2 -14 22 -8 20 -20 52 -28 70 -23 50 -21 105 3 113 11 4 20 11 20
16 0 5 19 9 43 9 35 -1 39 -3 27 -13 -21 -17 -23 -36 -2 -30 10 2 30 0 45 -6
20 -8 27 -17 27 -38 0 -20 10 -34 33 -50 17 -13 26 -23 18 -23 -8 0 -2 -9 13
-21 14 -11 30 -17 36 -14 5 3 14 -4 19 -17 5 -13 21 -34 35 -47 14 -14 26 -33
26 -43 0 -10 7 -18 15 -18 9 0 18 -7 21 -15 8 -20 21 -19 33 4 8 14 6 28 -6
51 -13 27 -13 34 -2 42 11 8 10 9 -3 4 -15 -4 -18 1 -18 28 0 19 -3 43 -6 53
-4 13 -3 14 4 5 6 -9 11 6 15 48 7 63 3 85 -13 75 -5 -3 -7 26 -4 70 5 72 4
75 -16 75 -15 0 -20 5 -18 18 2 9 11 16 20 14 12 -2 17 8 20 43 3 41 1 45 -19
45 -21 0 -23 5 -23 57 0 55 0 56 20 38 11 -10 20 -25 20 -33 0 -12 4 -12 20 3
19 17 21 17 39 1 18 -17 19 -17 24 1 3 13 9 7 23 -24 10 -24 25 -43 32 -43 26
0 70 -41 65 -61 -7 -25 9 -24 27 1 8 11 25 20 37 20 12 0 27 9 33 20 14 27 28
25 36 -5 8 -30 15 -31 32 -4 13 20 14 20 27 3 12 -18 14 -17 32 14 17 30 53
45 53 22 0 -5 5 -10 10 -10 6 0 10 9 10 19 0 11 5 23 10 26 6 3 10 28 10 56
l0 49 -1915 0 -1915 0 0 -2000z m3258 1888 c-6 -18 -28 -21 -28 -4 0 9 7 16
16 16 9 0 14 -5 12 -12z m-552 -558 c8 0 14 -4 14 -10 0 -5 -4 -10 -8 -10 -12
0 -32 22 -31 35 0 5 3 4 6 -2 2 -7 11 -13 19 -13z m-883 -250 c35 -39 34 -47
-9 -59 -67 -18 -96 19 -52 66 27 29 29 29 61 -7z m-53 -84 c0 -2 -7 -9 -15
-16 -13 -11 -14 -10 -9 4 5 14 24 23 24 12z m-866 -143 c4 -9 1 -20 -6 -24
-16 -10 -43 15 -34 30 11 16 33 13 40 -6z m116 -3 c14 -11 21 -20 16 -20 -5 0
-3 -7 4 -15 7 -9 10 -18 6 -22 -3 -3 -6 -1 -6 6 0 7 -4 9 -10 6 -20 -12 -9
-23 35 -35 45 -13 95 -7 95 10 0 6 16 10 35 10 19 0 35 -5 35 -11 0 -8 5 -7
15 1 11 9 13 15 5 20 -7 5 -3 9 10 13 27 7 79 -41 100 -93 32 -79 76 -145 98
-148 16 -3 22 -10 22 -30 0 -55 10 -72 42 -72 16 0 27 -4 24 -9 -3 -5 8 -14
24 -20 17 -5 30 -15 30 -22 0 -6 7 -8 16 -5 13 5 14 3 7 -6 -17 -21 2 -58 27
-53 12 2 18 0 14 -6 -3 -6 4 -19 17 -30 12 -10 18 -19 13 -19 -5 0 -4 -4 3 -8
6 -4 14 -21 17 -37 2 -17 5 -32 5 -35 1 -3 8 4 16 14 14 19 15 18 15 -16 0
-20 -4 -40 -10 -43 -15 -9 -12 -42 5 -48 8 -4 12 -15 10 -27 -2 -11 0 -20 6
-20 5 0 9 -9 9 -19 0 -11 5 -23 10 -26 6 -3 10 -15 10 -25 0 -10 4 -20 9 -22
5 -1 13 -15 16 -30 6 -22 4 -28 -9 -28 -9 0 -16 -4 -16 -10 0 -5 5 -10 11 -10
23 0 55 -48 50 -74 -1 -5 3 -12 8 -16 6 -3 12 -17 13 -30 3 -21 -2 -25 -34
-30 -21 -4 -38 -3 -38 2 0 4 -7 8 -15 8 -8 0 -15 -4 -15 -10 0 -5 -15 -10 -34
-10 -19 0 -38 -5 -41 -10 -4 -6 -34 -9 -68 -8 l-62 3 -3 -43 c-2 -23 -7 -40
-13 -37 -10 7 -12 -10 -3 -53 4 -18 14 -32 25 -35 28 -7 23 -42 -8 -72 -15
-14 -32 -25 -36 -25 -5 0 -6 -8 -2 -19 3 -10 -1 -24 -10 -31 -11 -9 -15 -26
-13 -49 3 -35 2 -36 -36 -39 -24 -2 -47 -11 -57 -23 -10 -12 -29 -19 -53 -19
-31 0 -36 -3 -36 -24 0 -14 -11 -33 -26 -45 -21 -17 -24 -25 -19 -54 6 -28 2
-39 -16 -56 -13 -11 -29 -21 -36 -21 -7 0 -13 -5 -13 -11 0 -5 5 -7 10 -4 20
12 51 -6 48 -28 -3 -19 -8 -22 -39 -19 -21 2 -40 -1 -44 -7 -20 -33 -118 12
-108 49 3 11 0 27 -7 35 -11 13 -11 20 0 40 10 19 11 27 1 39 -11 13 -10 18 2
31 21 20 27 19 27 -5 0 -13 7 -20 20 -20 11 0 20 3 20 6 0 12 -24 50 -42 65
-10 9 -18 25 -18 35 0 35 -43 105 -62 101 -22 -6 -52 27 -44 48 3 9 -1 18 -10
22 -13 5 -13 8 2 24 9 10 14 25 11 33 -4 9 -2 18 3 21 4 3 11 24 15 46 5 29
10 38 16 28 6 -10 9 -5 9 17 0 38 -9 49 -25 28 -10 -15 -14 -14 -40 9 -29 24
-29 24 -7 31 14 5 22 16 22 29 0 12 4 28 9 36 18 29 2 41 -47 34 -26 -3 -50
-10 -53 -15 -7 -10 -39 0 -39 12 0 5 10 12 23 16 19 6 97 75 97 85 0 2 -10 5
-22 5 -27 1 -91 11 -130 20 -24 5 -26 8 -18 25 6 10 7 19 3 19 -4 0 -1 6 5 12
10 10 15 10 22 -2 12 -19 23 -7 23 25 0 31 -19 55 -43 55 -10 0 -28 9 -41 21
-23 19 -23 20 -3 14 13 -3 26 1 34 10 7 8 23 15 37 15 21 0 23 3 17 22 -9 31
-31 51 -46 42 -7 -4 -10 -4 -6 0 3 4 -2 16 -13 27 -10 10 -19 23 -19 28 0 13
62 36 87 33 27 -4 29 6 6 24 -16 12 -16 15 -3 24 13 8 13 10 -1 10 -17 0 -109
80 -109 95 0 33 -23 85 -40 90 -13 4 -20 15 -20 31 0 13 -4 24 -9 24 -10 0
-19 43 -25 125 -5 65 -13 95 -27 95 -5 0 -9 5 -9 10 0 6 7 10 15 10 8 0 15 8
15 18 0 16 9 18 77 18 59 -1 77 -4 81 -16 8 -23 21 -28 68 -22 28 3 44 1 44
-6 0 -8 8 -9 26 -2 14 6 39 10 55 10 16 0 29 3 29 6 0 12 -30 34 -47 34 -15 0
-16 2 -3 10 20 13 21 13 50 -10z m579 -41 c24 -8 35 -8 46 1 9 7 19 10 23 6
17 -18 -35 -36 -102 -36 -70 0 -74 3 -34 26 30 16 30 16 67 3z m705 -32 c17
-12 14 -47 -5 -47 -5 0 -9 -7 -9 -15 0 -9 -7 -15 -17 -13 -10 2 -19 -5 -21
-16 -3 -12 1 -17 10 -14 7 3 18 -2 25 -11 9 -13 8 -20 -4 -33 -20 -22 -37 -23
-68 -2 -29 19 -32 46 -9 65 9 8 25 33 35 56 19 45 33 52 63 30z m232 -462 c14
-13 13 -15 -5 -15 -12 0 -21 6 -21 15 0 8 3 15 6 15 3 0 12 -7 20 -15z m-138
-24 c3 -8 -1 -12 -9 -9 -7 2 -15 10 -17 17 -3 8 1 12 9 9 7 -2 15 -10 17 -17z
m-10 -79 c7 -2 12 5 12 17 0 31 55 30 63 -1 8 -29 6 -30 -52 -35 -37 -3 -50 0
-55 12 -3 9 -18 15 -41 15 -53 0 -47 28 8 32 34 2 43 0 47 -16 3 -11 11 -21
18 -24z m122 13 c0 -15 -6 -25 -15 -25 -12 0 -13 4 -3 25 6 14 13 25 15 25 1
0 3 -11 3 -25z m-260 11 c0 -2 -7 -6 -15 -10 -8 -3 -15 -1 -15 4 0 6 7 10 15
10 8 0 15 -2 15 -4z m-1430 -88 c0 -19 -2 -20 -10 -8 -13 19 -13 30 0 30 6 0
10 -10 10 -22z m1150 -417 c0 -29 5 -41 18 -44 13 -4 11 -5 -5 -6 -13 0 -24 4
-24 9 -1 6 -2 14 -3 19 0 5 -4 13 -8 17 -14 13 -8 44 7 44 11 0 15 -11 15 -39z
m-163 -23 c-3 -8 -6 -5 -6 6 -1 11 2 17 5 13 3 -3 4 -12 1 -19z m383 -428 c0
-11 -4 -20 -10 -20 -5 0 -10 9 -10 20 0 11 5 20 10 20 6 0 10 -9 10 -20z
m-803 -76 c-10 -11 -57 -13 -57 -3 0 5 14 9 32 9 17 0 28 -3 25 -6z m20 -141
c-3 -10 -5 -2 -5 17 0 19 2 27 5 18 2 -10 2 -26 0 -35z m861 -30 c-5 -26 -38
-29 -38 -4 0 15 6 21 21 21 14 0 19 -5 17 -17z m-778 -7 c0 -3 -4 -8 -10 -11
-5 -3 -10 -1 -10 4 0 6 5 11 10 11 6 0 10 -2 10 -4z m-570 -256 c0 -5 -2 -10
-4 -10 -3 0 -8 5 -11 10 -3 6 -1 10 4 10 6 0 11 -4 11 -10z"/>
<path d="M1685 1780 c-3 -5 3 -10 14 -10 12 0 21 5 21 10 0 6 -6 10 -14 10 -8
0 -18 -4 -21 -10z"/>
<path d="M993 1723 c-16 -6 -17 -33 -3 -33 11 0 26 28 19 34 -2 2 -10 1 -16
-1z"/>
<path d="M1240 1209 c0 -5 5 -7 10 -4 6 3 10 8 10 11 0 2 -4 4 -10 4 -5 0 -10
-5 -10 -11z"/>
<path d="M1211 1177 c-8 -10 -7 -18 3 -32 13 -18 14 -18 31 -2 14 14 15 20 5
32 -15 18 -24 19 -39 2z"/>
<path d="M1110 1110 c0 -5 5 -10 10 -10 6 0 10 5 10 10 0 6 -4 10 -10 10 -5 0
-10 -4 -10 -10z"/>
<path d="M1185 1080 c-3 -5 -1 -10 4 -10 6 0 11 5 11 10 0 6 -2 10 -4 10 -3 0
-8 -4 -11 -10z"/>
<path d="M3847 3989 c8 -8 16 -8 30 0 16 9 14 10 -11 11 -22 0 -27 -3 -19 -11z"/>
<path d="M3612 3759 c2 -6 8 -10 13 -10 5 0 11 4 13 10 2 6 -4 11 -13 11 -9 0
-15 -5 -13 -11z"/>
<path d="M2665 3240 c-8 -13 9 -20 24 -11 10 6 9 10 -3 14 -8 3 -18 2 -21 -3z"/>
<path d="M3330 3220 c0 -5 5 -10 10 -10 6 0 10 5 10 10 0 6 -4 10 -10 10 -5 0
-10 -4 -10 -10z"/>
<path d="M2616 2874 c-8 -22 -8 -24 8 -24 7 0 16 9 19 20 6 24 -18 28 -27 4z"/>
<path d="M2337 2374 c-8 -8 1 -24 12 -24 4 0 8 7 8 15 0 16 -9 20 -20 9z"/>
<path d="M2480 2370 c0 -5 7 -10 15 -10 8 0 15 5 15 10 0 6 -7 10 -15 10 -8 0
-15 -4 -15 -10z"/>
<path d="M2715 2280 c3 -5 8 -10 11 -10 2 0 4 5 4 10 0 6 -5 10 -11 10 -5 0
-7 -4 -4 -10z"/>
<path d="M2662 2251 c-8 -5 -12 -17 -10 -27 5 -18 5 -18 13 1 5 11 13 23 19
27 16 11 -6 10 -22 -1z"/>
<path d="M2600 2240 c0 -5 9 -10 20 -10 11 0 20 5 20 10 0 6 -9 10 -20 10 -11
0 -20 -4 -20 -10z"/>
<path d="M2390 1628 c0 -7 5 -20 10 -28 8 -12 10 -11 10 7 0 12 -4 25 -10 28
-5 3 -10 0 -10 -7z"/>
</g>
</svg>
